<svg xmlns="http://www.w3.org/2000/svg" width="520" height="520" viewBox="0 0 520 520" version="1.1">
	<path d="M 263 125.268 C 261.625 125.891, 255.550 128.696, 249.500 131.501 C 243.450 134.306, 234.061 138.604, 228.636 141.051 C 223.211 143.498, 214.661 147.525, 209.636 150 L 200.500 154.500 191.995 180 C 184.771 201.658, 182.812 206.439, 178.995 211.731 C 176.523 215.158, 171.902 221.683, 168.727 226.231 C 165.553 230.779, 160.563 237.893, 157.640 242.040 C 153.895 247.352, 152.646 249.877, 153.412 250.585 C 154.011 251.137, 162.150 258.289, 171.500 266.477 C 180.850 274.665, 192.100 284.566, 196.500 288.478 C 200.900 292.390, 206.075 296.876, 208 298.448 L 211.500 301.306 254.129 300.632 L 296.757 299.958 305.879 309.642 L 315 319.327 314.985 332.414 C 314.976 339.611, 314.629 345.950, 314.214 346.500 C 313.798 347.050, 308.473 352.337, 302.379 358.250 L 291.299 369 266.410 369 L 241.520 369 223.903 351.403 L 206.285 333.806 204.600 347.653 C 203.674 355.269, 202.482 364.875, 201.951 369 C 200.500 380.288, 200.653 381.918, 203.263 382.910 C 204.507 383.383, 209.794 385.801, 215.013 388.284 C 220.231 390.767, 229.225 394.914, 235 397.500 C 250.995 404.662, 264 410.946, 264 411.512 C 264 411.792, 260.512 413.651, 256.250 415.645 C 249.537 418.784, 227.567 429.188, 218.500 433.521 C 215.851 434.787, 221.439 434.957, 266.215 434.977 C 316.169 435, 316.946 434.970, 318.016 432.970 C 318.614 431.853, 319.265 429.655, 319.464 428.085 C 319.828 425.208, 320.706 421.957, 325.565 405.500 C 327.026 400.550, 328.404 395.499, 328.626 394.276 C 328.848 393.053, 329.473 390.886, 330.015 389.461 C 330.557 388.036, 331 385.809, 331 384.512 C 331 382.715, 331.772 381.928, 334.250 381.201 C 338.360 379.994, 355.761 375.312, 363 373.465 C 366.025 372.693, 371.087 371.360, 374.250 370.503 L 380 368.944 379.937 326.722 L 379.875 284.500 373.100 278.678 C 369.373 275.476, 365.238 271.876, 363.909 270.678 C 362.581 269.480, 357.896 265.350, 353.497 261.500 C 349.099 257.650, 345.275 254.275, 345 254 C 344.725 253.725, 340.901 250.350, 336.503 246.500 C 332.104 242.650, 327.379 238.473, 326.003 237.219 C 324.626 235.964, 322.401 234.656, 321.057 234.312 C 319.714 233.968, 300.026 233.997, 277.306 234.378 L 235.997 235.069 230.249 228.914 C 227.087 225.529, 222.819 220.901, 220.764 218.629 L 217.028 214.500 217.014 201.874 L 217 189.247 229.250 177.725 C 239.267 168.302, 242.548 164.465, 247.250 156.672 C 250.412 151.430, 253 146.659, 253 146.071 C 253 145.482, 253.370 145, 253.823 145 C 254.275 145, 255.702 142.863, 256.993 140.250 C 258.285 137.637, 260.278 134.150, 261.423 132.500 C 262.568 130.850, 263.970 128.652, 264.539 127.615 C 265.107 126.579, 266.006 125.723, 266.536 125.713 C 267.358 125.699, 278.076 142.432, 281.132 148.500 C 284.520 155.228, 291.135 166, 291.880 166 C 292.259 166, 295.254 165.054, 298.535 163.899 C 301.816 162.743, 305.264 161.648, 306.198 161.466 C 309.051 160.909, 319.205 157.879, 324.654 155.958 C 327.489 154.959, 330.076 154.410, 330.404 154.737 C 330.732 155.065, 331 154.870, 331 154.303 C 331 153.737, 328.188 152.025, 324.750 150.499 C 321.313 148.973, 314.675 145.933, 310 143.744 C 305.325 141.555, 299.025 138.649, 296 137.288 C 292.975 135.927, 288.475 133.902, 286 132.789 C 283.525 131.676, 278.228 129.243, 274.228 127.383 C 266.157 123.628, 266.483 123.690, 263 125.268 M 331.577 156.250 C 330.762 160.221, 330.049 165.352, 329.494 171.226 C 329.197 174.375, 328.300 182.223, 327.500 188.666 C 326.701 195.109, 326.226 200.559, 326.444 200.777 C 326.836 201.169, 329.569 199.456, 354 183.506 C 360.875 179.018, 369.583 173.399, 373.351 171.019 C 378.133 168, 379.792 166.463, 378.843 165.932 C 377.544 165.205, 364.396 161.647, 357 160.020 C 355.075 159.597, 349.512 158.069, 344.638 156.625 C 333.735 153.395, 332.171 153.350, 331.577 156.250" stroke="none" fill="black" fill-rule="evenodd"/>
</svg>